<mxfile host="app.diagrams.net" agent="Mozilla/5.0 (Windows NT 10.0; Win64; x64) AppleWebKit/537.36 (KHTML, like Gecko) Chrome/127.0.0.0 Safari/537.36 Edg/127.0.0.0" version="24.7.6">
  <diagram name="Page-1" id="8qyUJzHjPyunFO4X5Ci0">
    <mxGraphModel dx="2491" dy="958" grid="1" gridSize="10" guides="1" tooltips="1" connect="1" arrows="1" fold="1" page="1" pageScale="1" pageWidth="827" pageHeight="1169" math="0" shadow="0">
      <root>
        <mxCell id="0" />
        <mxCell id="1" parent="0" />
        <mxCell id="BJBYnWr47QIC-PBS7Q7c-2" value="&lt;font style=&quot;font-size: 30px;&quot;&gt;PROCESS&lt;/font&gt;" style="ellipse;whiteSpace=wrap;html=1;aspect=fixed;fillColor=#dae8fc;strokeColor=#6c8ebf;" vertex="1" parent="1">
          <mxGeometry x="340" y="510" width="160" height="160" as="geometry" />
        </mxCell>
        <mxCell id="BJBYnWr47QIC-PBS7Q7c-3" value="&lt;font style=&quot;font-size: 30px;&quot;&gt;IDLE&lt;/font&gt;" style="ellipse;whiteSpace=wrap;html=1;aspect=fixed;fillColor=#dae8fc;strokeColor=#6c8ebf;" vertex="1" parent="1">
          <mxGeometry x="210" y="80" width="160" height="160" as="geometry" />
        </mxCell>
        <mxCell id="BJBYnWr47QIC-PBS7Q7c-4" value="" style="edgeStyle=none;orthogonalLoop=1;jettySize=auto;html=1;rounded=0;exitX=1;exitY=0.5;exitDx=0;exitDy=0;entryX=0.656;entryY=0.031;entryDx=0;entryDy=0;entryPerimeter=0;curved=1;" edge="1" parent="1" source="BJBYnWr47QIC-PBS7Q7c-3" target="BJBYnWr47QIC-PBS7Q7c-2">
          <mxGeometry width="80" relative="1" as="geometry">
            <mxPoint x="430" y="200" as="sourcePoint" />
            <mxPoint x="510" y="200" as="targetPoint" />
            <Array as="points">
              <mxPoint x="530" y="200" />
            </Array>
          </mxGeometry>
        </mxCell>
        <mxCell id="BJBYnWr47QIC-PBS7Q7c-5" value="" style="edgeStyle=none;orthogonalLoop=1;jettySize=auto;html=1;rounded=0;exitX=0.038;exitY=0.263;exitDx=0;exitDy=0;entryX=0.244;entryY=0.956;entryDx=0;entryDy=0;entryPerimeter=0;exitPerimeter=0;curved=1;" edge="1" parent="1" source="BJBYnWr47QIC-PBS7Q7c-2" target="BJBYnWr47QIC-PBS7Q7c-3">
          <mxGeometry width="80" relative="1" as="geometry">
            <mxPoint x="370" y="348" as="sourcePoint" />
            <mxPoint x="302" y="230" as="targetPoint" />
            <Array as="points">
              <mxPoint x="249" y="490" />
              <mxPoint x="200" y="390" />
              <mxPoint x="190" y="290" />
            </Array>
          </mxGeometry>
        </mxCell>
        <mxCell id="BJBYnWr47QIC-PBS7Q7c-6" value="" style="edgeStyle=none;orthogonalLoop=1;jettySize=auto;html=1;rounded=0;curved=1;" edge="1" parent="1" target="BJBYnWr47QIC-PBS7Q7c-3">
          <mxGeometry width="80" relative="1" as="geometry">
            <mxPoint x="150" y="40" as="sourcePoint" />
            <mxPoint x="210" y="20" as="targetPoint" />
            <Array as="points">
              <mxPoint x="180" y="40" />
              <mxPoint x="200" y="50" />
              <mxPoint x="200" y="90" />
            </Array>
          </mxGeometry>
        </mxCell>
        <mxCell id="BJBYnWr47QIC-PBS7Q7c-8" value="&lt;font style=&quot;font-size: 30px;&quot;&gt;reset&lt;/font&gt;" style="text;html=1;align=center;verticalAlign=middle;resizable=0;points=[];autosize=1;strokeColor=none;fillColor=none;" vertex="1" parent="1">
          <mxGeometry x="60" y="20" width="90" height="50" as="geometry" />
        </mxCell>
        <mxCell id="BJBYnWr47QIC-PBS7Q7c-9" style="edgeStyle=orthogonalEdgeStyle;rounded=0;orthogonalLoop=1;jettySize=auto;html=1;exitX=0.5;exitY=0;exitDx=0;exitDy=0;entryX=0.99;entryY=0.323;entryDx=0;entryDy=0;entryPerimeter=0;curved=1;" edge="1" parent="1" source="BJBYnWr47QIC-PBS7Q7c-3" target="BJBYnWr47QIC-PBS7Q7c-3">
          <mxGeometry relative="1" as="geometry">
            <Array as="points">
              <mxPoint x="290" y="40" />
              <mxPoint x="410" y="40" />
              <mxPoint x="410" y="132" />
            </Array>
          </mxGeometry>
        </mxCell>
        <mxCell id="BJBYnWr47QIC-PBS7Q7c-10" value="&lt;font style=&quot;font-size: 30px;&quot;&gt;!start&lt;/font&gt;" style="text;html=1;align=center;verticalAlign=middle;resizable=0;points=[];autosize=1;strokeColor=none;fillColor=none;" vertex="1" parent="1">
          <mxGeometry x="395" y="18" width="90" height="50" as="geometry" />
        </mxCell>
        <mxCell id="BJBYnWr47QIC-PBS7Q7c-11" value="&lt;font style=&quot;font-size: 30px;&quot;&gt;start / enable&lt;/font&gt;" style="text;html=1;align=center;verticalAlign=middle;resizable=0;points=[];autosize=1;strokeColor=none;fillColor=none;" vertex="1" parent="1">
          <mxGeometry x="480" y="280" width="200" height="50" as="geometry" />
        </mxCell>
        <mxCell id="BJBYnWr47QIC-PBS7Q7c-12" value="&lt;font style=&quot;font-size: 30px;&quot;&gt;!count_16, A[15] / enable,&amp;nbsp;&lt;/font&gt;&lt;div&gt;&lt;font style=&quot;font-size: 30px;&quot;&gt;sel_aq, q_updated&lt;/font&gt;&lt;/div&gt;" style="text;html=1;align=center;verticalAlign=middle;resizable=0;points=[];autosize=1;strokeColor=none;fillColor=none;" vertex="1" parent="1">
          <mxGeometry x="570" y="495" width="370" height="90" as="geometry" />
        </mxCell>
        <mxCell id="BJBYnWr47QIC-PBS7Q7c-13" style="edgeStyle=orthogonalEdgeStyle;rounded=0;orthogonalLoop=1;jettySize=auto;html=1;exitX=1;exitY=0;exitDx=0;exitDy=0;entryX=0.99;entryY=0.677;entryDx=0;entryDy=0;entryPerimeter=0;curved=1;" edge="1" parent="1" source="BJBYnWr47QIC-PBS7Q7c-2" target="BJBYnWr47QIC-PBS7Q7c-2">
          <mxGeometry relative="1" as="geometry">
            <Array as="points">
              <mxPoint x="477" y="510" />
              <mxPoint x="570" y="510" />
              <mxPoint x="570" y="630" />
              <mxPoint x="498" y="630" />
            </Array>
          </mxGeometry>
        </mxCell>
        <mxCell id="BJBYnWr47QIC-PBS7Q7c-15" style="edgeStyle=orthogonalEdgeStyle;rounded=0;orthogonalLoop=1;jettySize=auto;html=1;exitX=0;exitY=1;exitDx=0;exitDy=0;entryX=0.5;entryY=1;entryDx=0;entryDy=0;curved=1;" edge="1" parent="1" source="BJBYnWr47QIC-PBS7Q7c-2" target="BJBYnWr47QIC-PBS7Q7c-2">
          <mxGeometry relative="1" as="geometry">
            <Array as="points">
              <mxPoint x="340" y="647" />
              <mxPoint x="340" y="730" />
              <mxPoint x="420" y="730" />
            </Array>
          </mxGeometry>
        </mxCell>
        <mxCell id="BJBYnWr47QIC-PBS7Q7c-16" value="&lt;font style=&quot;font-size: 30px;&quot;&gt;!count_16 / enable,&amp;nbsp;&lt;/font&gt;&lt;span style=&quot;font-size: 30px; background-color: initial;&quot;&gt;sel_aq&lt;/span&gt;" style="text;html=1;align=center;verticalAlign=middle;resizable=0;points=[];autosize=1;strokeColor=none;fillColor=none;" vertex="1" parent="1">
          <mxGeometry x="230" y="740" width="380" height="50" as="geometry" />
        </mxCell>
        <mxCell id="BJBYnWr47QIC-PBS7Q7c-17" value="&lt;font style=&quot;font-size: 30px;&quot;&gt;count_16&amp;nbsp;&lt;/font&gt;&lt;div&gt;&lt;font style=&quot;font-size: 30px;&quot;&gt;/ ready,&amp;nbsp;&lt;/font&gt;&lt;/div&gt;&lt;div&gt;&lt;font style=&quot;font-size: 30px;&quot;&gt;enable,&amp;nbsp;&lt;/font&gt;&lt;span style=&quot;font-size: 30px; background-color: initial;&quot;&gt;sel_aq&lt;/span&gt;&lt;/div&gt;" style="text;html=1;align=center;verticalAlign=middle;resizable=0;points=[];autosize=1;strokeColor=none;fillColor=none;" vertex="1" parent="1">
          <mxGeometry x="-20" y="310" width="220" height="120" as="geometry" />
        </mxCell>
      </root>
    </mxGraphModel>
  </diagram>
</mxfile>
